<svg width="10" height="10" viewBox="0 0 10 10" fill="none" xmlns="http://www.w3.org/2000/svg">
<g clip-path="url(#clip0_1_409)">
<path d="M4.60976 7.77793L0.159747 3.32778C0.0567406 3.22485 -6.05656e-06 3.08745 -5.19086e-06 2.94095C-4.32516e-06 2.79445 0.056744 2.65705 0.159752 2.55412L0.487393 2.2264C0.700888 2.01316 1.04788 2.01316 1.26104 2.22641L4.9979 5.96331L8.73895 2.22231C8.84195 2.11938 8.97927 2.06255 9.12569 2.06255C9.27227 2.06255 9.40959 2.11938 9.51268 2.22231L9.84023 2.55003C9.94324 2.65304 9.99999 2.79036 9.99999 2.93686C9.99999 3.08336 9.94324 3.22076 9.84023 3.32369L5.3861 7.77793C5.28276 7.8811 5.1448 7.93777 4.99813 7.93744C4.8509 7.93777 4.71301 7.8811 4.60976 7.77793Z" fill="#28201C"/>
</g>
<defs>
<clipPath id="clip0_1_409">
<rect width="10" height="10" fill="white" transform="matrix(1 0 0 -1 0 10)"/>
</clipPath>
</defs>
</svg>
