<svg width="60" height="61" viewBox="0 0 60 61" fill="none" xmlns="http://www.w3.org/2000/svg">
<g clip-path="url(#clip0_1_229)">
<path d="M20.5928 30.7432L29.3406 26.212C31.6938 24.9916 34.0527 23.7749 36.3984 22.5469C37.0235 22.192 37.726 21.9954 38.4445 21.9745C39.163 21.9536 39.8756 22.1089 40.5203 22.427C45.4985 24.7347 50.4897 27.0181 55.4604 29.3446C58.4712 30.7544 59.957 33.1747 59.9757 36.4948C59.9888 40.1167 59.9514 43.7386 59.9926 47.3587C60.0076 48.6879 59.4455 49.4584 58.2689 50.0545C53.1184 52.6566 48.0072 55.3337 42.8829 57.9827C42.5832 58.1383 42.2778 58.2826 41.8356 58.5001C41.8094 58.0708 41.7738 57.7502 41.7719 57.4315C41.7719 54.0283 41.7719 50.6251 41.7719 47.2218C41.7719 42.8069 39.799 39.6574 35.7858 37.8014C31.0905 35.6305 26.394 33.4577 21.6963 31.2831C21.3909 31.1406 21.0893 30.9869 20.5928 30.7432ZM43.8122 40.7466C44.2731 40.5591 44.5935 40.4429 44.9008 40.3023C47.1341 39.2712 49.3656 38.2376 51.5951 37.2015C53.094 36.506 54.5929 35.8199 56.0824 35.1112C56.7082 34.8132 56.9611 34.2976 56.6595 33.6471C56.3709 33.0247 55.8201 32.9684 55.2262 33.1709C55.0227 33.2491 54.8238 33.3386 54.6304 33.439L45.9032 37.4902C45.0844 37.8652 44.2169 38.1745 43.4675 38.6676C43.1527 38.8775 42.9448 39.5037 42.986 39.9105C43.0234 40.2161 43.5274 40.4748 43.8122 40.7466Z" fill="#904476"/>
<path d="M12.3658 34.0781C8.5811 32.1303 4.89012 30.2387 1.20476 28.3322C0.845448 28.167 0.542551 27.8998 0.3337 27.5639C0.124848 27.2279 0.0192481 26.838 0.0300177 26.4425C0.0300177 22.4137 -0.0580413 18.3812 0.0674896 14.3581C0.153675 11.561 1.57386 9.37138 4.10321 8.15657C9.30431 5.65946 14.5654 3.28796 19.8096 0.87521C20.3323 0.618938 20.9078 0.488839 21.4899 0.49535C22.072 0.501861 22.6445 0.644803 23.1614 0.912704C28.4618 3.63103 33.7472 6.38123 39.0383 9.1183C39.1207 9.16142 39.2069 9.19141 39.4786 9.30577C37.7305 10.1213 36.2166 10.8355 34.699 11.5367C31.1392 13.1845 27.5475 14.7968 23.997 16.4821C20.263 18.2537 18.3425 21.2495 18.2414 25.3908C18.2133 26.5456 18.2826 27.7041 18.2076 28.8552C18.1799 29.0518 18.1128 29.2408 18.0105 29.4108C17.9081 29.5809 17.7725 29.7286 17.6118 29.8451C16.8974 30.2909 16.1524 30.6856 15.3823 31.0261C14.0258 31.6654 13.104 32.7452 12.3658 34.0781ZM16.2703 21.0883C16.5401 20.8352 17.0423 20.5878 17.0741 20.2859C17.1191 19.881 16.9261 19.2492 16.6188 19.0467C15.8469 18.5368 14.9532 18.2125 14.1063 17.8188C11.1086 16.4303 8.1152 15.0442 5.1262 13.6607C4.25685 13.2614 3.61608 13.417 3.3875 14.0806C3.11208 14.8755 3.56174 15.2823 4.23436 15.5917C7.93659 17.2976 11.6363 19.0118 15.3335 20.734C15.5734 20.8483 15.8394 20.9346 16.261 21.0883H16.2703Z" fill="#904476"/>
<path d="M20.396 52.8703C18.3706 51.8936 16.5139 51.0931 14.7752 50.0901C14.3087 49.8221 13.9789 48.9353 13.9677 48.3242C13.8965 44.4848 13.8796 40.6379 13.9489 36.8004C14.0108 33.5159 17.1209 31.5643 20.1056 32.9178C25.1905 35.2219 30.268 37.5465 35.3098 39.9461C38.0827 41.2584 39.5704 43.553 39.6078 46.6557C39.6547 50.4651 39.6341 54.2764 39.6191 58.0914C39.6097 60.1011 38.1446 61.0328 36.3272 60.2004C33.6055 58.9506 30.8875 57.694 28.1733 56.4304C26.5995 55.7011 26.4983 55.4631 26.9423 53.5359C27.5175 53.7908 28.0815 54.0308 28.6398 54.2857C30.5134 55.1462 32.3701 56.0292 34.2494 56.8672C36.0162 57.6546 37.4832 56.6985 37.4944 54.7638C37.5094 52.1092 37.5225 49.4527 37.4944 46.7982C37.4682 44.5298 36.4208 42.8313 34.3693 41.8677C29.373 39.5231 24.3605 37.2109 19.3318 34.9313C17.6081 34.1439 16.1298 35.0869 16.1186 36.9672C16.0961 40.2779 16.1186 43.5887 16.1055 46.9031C16.1055 48.0055 16.5757 48.7404 17.5687 49.1772C18.1308 49.4284 18.6798 49.7752 19.2718 49.9495C20.2217 50.2307 20.5627 50.8044 20.396 51.753C20.3723 52.1251 20.3723 52.4983 20.396 52.8703Z" fill="#904476"/>
<path d="M18.23 36.8042C18.749 37.0198 19.1181 37.1566 19.4741 37.3216C24.0332 39.4275 28.5923 41.536 33.1513 43.6469C34.9875 44.498 35.7238 46.0278 35.2235 48.0956C33.335 47.2576 31.4764 46.3783 29.5803 45.6228C28.8571 45.336 27.9933 45.1429 27.242 45.2479C25.612 45.4747 24.6565 46.817 24.6434 48.6373C24.6246 51.1982 24.6434 53.759 24.6434 56.3236C24.6434 56.6048 24.6434 56.8861 24.6434 57.1654C24.6284 57.8609 24.2836 58.3521 23.5923 58.3577C22.9009 58.3633 22.5374 57.8928 22.5281 57.1879C22.5281 56.9367 22.5281 56.6873 22.5281 56.438C22.5281 52.6267 22.5037 48.8154 22.5393 45.0023C22.5562 43.2626 21.8742 41.9521 20.2179 41.4591C18.5317 40.9548 17.9565 39.98 18.2375 38.3227C18.2937 37.8803 18.23 37.4135 18.23 36.8042Z" fill="#904476"/>
<path d="M20.4747 28.2911C20.4747 26.8251 20.3098 25.4022 20.5103 24.0336C20.87 21.5628 22.2677 19.6825 24.5235 18.612C29.6522 16.1786 34.8039 13.7965 39.9788 11.4656C42.8004 10.1889 45.8207 11.9774 46.0343 15.0744C46.1785 17.1572 46.0755 19.2569 46.083 21.3491C46.083 21.6903 46.083 22.0315 46.083 22.3727C44.5148 22.3352 43.9077 21.7428 43.9058 20.3105C43.9058 18.687 43.9265 17.0616 43.9058 15.4362C43.8759 13.6646 42.4182 12.7142 40.7957 13.4528C35.6808 15.7849 30.5752 18.1227 25.5034 20.5261C23.5324 21.4634 22.5712 23.16 22.5056 25.3516C22.5056 25.4453 22.5056 25.539 22.5056 25.6328C22.5075 27.5675 22.5075 27.5675 20.4747 28.2911Z" fill="#904476"/>
<path d="M41.7437 15.3516V20.5164C41.4571 20.432 41.2266 20.3814 41.0074 20.2989C39.0888 19.5622 37.2377 19.6915 35.4166 20.6495C32.2708 22.2992 29.1119 23.9246 25.9587 25.5575C25.584 25.7449 25.198 25.9324 24.7989 26.1199C24.383 24.4326 25.1118 23.0416 26.7624 22.273C30.8581 20.3658 34.9576 18.4692 39.0607 16.5832L41.7437 15.3516Z" fill="#904476"/>
<path d="M35.3773 55.0392L27.1878 51.2542C27.1 51.2207 27.0188 51.1718 26.948 51.1098C26.5733 50.7199 26.7419 47.8104 27.2122 47.5591C27.5288 47.3885 28.0272 47.2929 28.3363 47.4223C30.5509 48.3465 32.7393 49.3326 34.9258 50.3225C35.1131 50.4087 35.353 50.6618 35.3567 50.8436C35.3942 52.1728 35.3773 53.502 35.3773 55.0392Z" fill="#904476"/>
<path d="M20.396 48.1008C19.6616 47.7652 19.0845 47.5384 18.5636 47.2421C18.4713 47.1717 18.3951 47.0822 18.3405 46.9796C18.2859 46.877 18.254 46.7639 18.247 46.6479C18.217 45.4668 18.232 44.2839 18.232 43.0859C19.8976 43.2734 20.3923 43.7889 20.3941 45.3075C20.396 46.1754 20.396 47.0359 20.396 48.1008Z" fill="#904476"/>
</g>
<defs>
<clipPath id="clip0_1_229">
<rect width="60" height="60" fill="white" transform="translate(0 0.5)"/>
</clipPath>
</defs>
</svg>
