<svg width="30" height="30" viewBox="0 0 30 30" fill="none" xmlns="http://www.w3.org/2000/svg">
<path d="M24.2206 4.4341L24.1057 4.82266L23.7017 4.79077C23.6577 4.78729 23.6136 4.78552 23.5694 4.78546C23.5693 4.78546 23.5692 4.78546 23.5691 4.78546L2.14427 4.78546C1.05322 4.78546 0.264837 5.82898 0.564474 6.87895L0.564491 6.87901L3.69824 17.8652L3.69826 17.8653C3.94942 18.7462 4.48079 19.5212 5.2119 20.0731C5.943 20.625 6.83401 20.9237 7.75004 20.9239C7.75008 20.9239 7.75012 20.9239 7.75015 20.9239H17.9467C18.8701 20.9239 19.7679 20.6207 20.5021 20.0609C21.2364 19.5012 21.7664 18.7158 22.0109 17.8256C22.0109 17.8255 22.0109 17.8255 22.0109 17.8254L23.3137 13.0739L23.3136 13.0738L23.3166 13.0639L25.4649 5.82143L25.466 5.81267L25.4756 5.77786C25.4796 5.76327 25.4836 5.74868 25.4876 5.73408C25.7458 4.79569 26.0088 3.83974 26.4104 3.10966C26.6066 2.74857 26.8094 2.48538 27.0386 2.31318C27.286 2.12727 27.5321 2.07128 27.7543 2.07128H28.7126C28.921 2.07128 29.1208 1.9885 29.2682 1.84116C29.4155 1.69382 29.4983 1.49399 29.4983 1.28564C29.4983 1.07729 29.4155 0.877459 29.2682 0.73012C29.1208 0.582781 28.921 0.5 28.7126 0.5H27.756C26.3961 0.5 25.5521 1.40253 25.0317 2.3536L25.0316 2.35388C24.6857 2.98502 24.4285 3.73076 24.2206 4.4341ZM21.785 12.7098L21.7851 12.7098L21.7838 12.7143L20.4964 17.4095L20.4961 17.4106C20.1792 18.5554 19.1377 19.3526 17.9467 19.3526H7.75004C7.17557 19.3526 6.61675 19.1654 6.15819 18.8194C5.69962 18.4734 5.36628 17.9874 5.20864 17.435L5.20862 17.435L2.23087 6.99387L2.04917 6.35674H2.7117H22.9954H23.665L23.4747 6.9988L21.8071 12.6262L21.785 12.7098Z" stroke="#885A42"/>
<path d="M15.9272 26.5716C15.9272 27.3482 16.2357 28.093 16.785 28.6422C17.3342 29.1914 18.0791 29.4999 18.8558 29.4999C19.6325 29.4999 20.3774 29.1914 20.9267 28.6422C21.4759 28.093 21.7844 27.3482 21.7844 26.5716C21.7844 25.7949 21.4759 25.0501 20.9267 24.5009C20.3774 23.9517 19.6325 23.6432 18.8558 23.6432C18.0791 23.6432 17.3342 23.9517 16.785 24.5009C16.2357 25.0501 15.9272 25.7949 15.9272 26.5716ZM17.4987 26.5716C17.4987 26.2116 17.6417 25.8664 17.8962 25.6119C18.1507 25.3574 18.4959 25.2145 18.8558 25.2145C19.2157 25.2145 19.5609 25.3574 19.8155 25.6119C20.07 25.8664 20.213 26.2116 20.213 26.5716C20.213 26.9315 20.07 27.2767 19.8155 27.5312C19.5609 27.7857 19.2157 27.9287 18.8558 27.9287C18.4959 27.9287 18.1507 27.7857 17.8962 27.5312C17.6417 27.2767 17.4987 26.9315 17.4987 26.5716Z" stroke="#885A42"/>
<path d="M3.92721 26.5716C3.92721 27.3482 4.23575 28.093 4.78496 28.6422C5.33418 29.1914 6.07909 29.4999 6.85581 29.4999C7.63254 29.4999 8.37745 29.1914 8.92667 28.6422C9.47588 28.093 9.78442 27.3482 9.78442 26.5716C9.78442 25.7949 9.47588 25.0501 8.92667 24.5009C8.37745 23.9517 7.63254 23.6432 6.85581 23.6432C6.07909 23.6432 5.33418 23.9517 4.78496 24.5009C4.23575 25.0501 3.92721 25.7949 3.92721 26.5716ZM5.49866 26.5716C5.49866 26.2116 5.64165 25.8664 5.89618 25.6119C6.15069 25.3574 6.49589 25.2145 6.85581 25.2145C7.21574 25.2145 7.56094 25.3574 7.81545 25.6119C8.06997 25.8664 8.21297 26.2116 8.21297 26.5716C8.21297 26.9315 8.06997 27.2767 7.81546 27.5312C7.56094 27.7857 7.21574 27.9287 6.85581 27.9287C6.49589 27.9287 6.15069 27.7857 5.89617 27.5312C5.64165 27.2767 5.49866 26.9315 5.49866 26.5716Z" stroke="#885A42"/>
</svg>
