<svg width="60" height="60" viewBox="0 0 60 60" fill="none" xmlns="http://www.w3.org/2000/svg">
<path d="M42.0239 34.4165C31.4801 31.0529 22.1599 33.4547 13.6453 41.2896C13.6438 40.6165 13.6825 39.9439 13.7611 39.2755C15.7097 30.212 22.462 24.4567 31.7269 24.3007C42.5526 24.1144 51.6966 28.4849 59.9947 35.0509C50.9313 48.49 40.1357 53.8374 26.0622 50.8565C23.8448 50.3991 21.6585 49.8021 19.5164 49.069C18.2223 48.6159 17.5526 48.7921 16.9232 50.0257C15.557 52.7112 14.1186 55.3631 12.608 57.9814C11.7722 59.4316 10.5637 60.7911 8.81648 59.4517C8.13169 58.9482 7.55264 57.1254 7.92525 56.5212C13.3432 47.7599 19.5516 39.6833 29.9645 36.6018C33.4892 35.5494 37.4167 35.7508 41.1579 35.3681C41.4709 35.3174 41.7803 35.2468 42.0844 35.1566L42.0239 34.4165Z" fill="#904476"/>
<path d="M9.80845 0.000488281C20.1962 10.5745 21.465 25.5846 12.744 32.7296C9.95951 27.075 9.59697 20.9068 8.6302 14.8444C6.48519 21.5715 7.26565 28.1979 9.81349 34.8041C3.78629 32.9914 -0.584299 26.1435 0.0702833 19.22C0.780253 11.6672 4.66746 5.58961 9.80845 0.000488281Z" fill="#904476"/>
</svg>
