<svg width="30" height="30" viewBox="0 0 30 30" fill="none" xmlns="http://www.w3.org/2000/svg">
<path d="M8.08984 7.91016C8.08984 4.10078 11.1906 1 15 1C18.8094 1 21.9102 4.10078 21.9102 7.91016C21.9102 11.7195 18.8094 14.8203 15 14.8203C11.1906 14.8203 8.08984 11.7195 8.08984 7.91016Z" stroke="#885A42" stroke-width="2"/>
<path d="M5.87072 21.1037L5.15824 20.4021L5.87072 21.1037C7.85108 19.0929 10.4665 17.9922 13.2422 17.9922H16.7578C19.5335 17.9922 22.1489 19.0929 24.1293 21.1037L24.8418 20.4021L24.1293 21.1037C26.0725 23.0768 27.1521 25.6663 27.1829 28.4141H2.81709C2.84791 25.6663 3.92748 23.0768 5.87072 21.1037Z" stroke="#885A42" stroke-width="2"/>
</svg>
