<svg width="24" height="30" viewBox="0 0 24 30" fill="none" xmlns="http://www.w3.org/2000/svg">
<mask id="path-1-inside-1_1_415" fill="white">
<path d="M23.4698 11.1769C23.4454 13.9678 22.7259 16.2416 21.2391 18.2465C18.4217 22.0445 15.592 25.8328 12.7502 29.6115C12.6656 29.732 12.5532 29.8302 12.4224 29.8979C12.2917 29.9655 12.1465 30.0005 11.9993 30C11.8521 29.9994 11.7072 29.9633 11.5769 29.8947C11.4467 29.8261 11.335 29.727 11.2513 29.6059C8.41538 25.8191 5.5692 22.0435 2.75862 18.2418C-2.23484 11.4898 1.60816 1.75302 9.86564 0.200642C11.3683 -0.0842435 12.9128 -0.0655819 14.4081 0.255528C15.9034 0.576639 17.3194 1.19371 18.5726 2.07039C19.8258 2.94708 20.891 4.06566 21.7053 5.36027C22.5196 6.65488 23.0667 8.09934 23.3143 9.6086C23.4154 10.2222 23.4379 10.8481 23.4698 11.1769ZM12.0185 15.27C12.7707 15.2632 13.5039 15.0337 14.1257 14.6104C14.7475 14.1872 15.2299 13.5892 15.5122 12.892C15.7944 12.1948 15.8637 11.4296 15.7115 10.693C15.5592 9.95646 15.1921 9.28151 14.6565 8.75339C14.1209 8.22526 13.4409 7.86765 12.7023 7.72569C11.9636 7.58372 11.1995 7.66378 10.5063 7.95574C9.81312 8.2477 9.22197 8.73848 8.80748 9.36613C8.39299 9.99379 8.17375 10.7302 8.17742 11.4823C8.18707 12.4932 8.59655 13.4591 9.31634 14.1688C10.0361 14.8786 11.0077 15.2745 12.0185 15.27Z"/>
</mask>
<path d="M23.4698 11.1769L25.4697 11.1944L25.4706 11.089L25.4605 10.9841L23.4698 11.1769ZM21.2391 18.2465L22.8454 19.438L22.8456 19.4378L21.2391 18.2465ZM12.7502 29.6115L11.1518 28.4094L11.1322 28.4354L11.1135 28.4621L12.7502 29.6115ZM11.2513 29.6059L12.8966 28.4688L12.8749 28.4375L12.8521 28.407L11.2513 29.6059ZM2.75862 18.2418L4.36686 17.0528L4.36664 17.0525L2.75862 18.2418ZM9.86564 0.200642L10.2352 2.16621L10.2382 2.16564L9.86564 0.200642ZM23.3143 9.6086L21.3406 9.93234L21.3409 9.93397L23.3143 9.6086ZM8.17742 11.4823L6.17742 11.4921L6.17751 11.5014L8.17742 11.4823ZM21.4699 11.1594C21.4488 13.5779 20.8389 15.4286 19.6327 17.0551L22.8456 19.4378C24.6129 17.0546 25.4421 14.3577 25.4697 11.1944L21.4699 11.1594ZM19.6328 17.0549C16.818 20.8494 13.991 24.6342 11.1518 28.4094L14.3486 30.8136C17.1931 27.0314 20.0253 23.2396 22.8454 19.438L19.6328 17.0549ZM11.1135 28.4621C11.2141 28.3188 11.3479 28.202 11.5034 28.1215L13.3414 31.6742C13.7584 31.4585 14.1171 31.1451 14.387 30.7609L11.1135 28.4621ZM11.5034 28.1215C11.659 28.041 11.8317 27.9993 12.0068 28L11.9918 32C12.4613 32.0017 12.9243 31.89 13.3414 31.6742L11.5034 28.1215ZM12.0068 28C12.1819 28.0007 12.3542 28.0436 12.5092 28.1253L10.6447 31.6641C11.0601 31.883 11.5222 31.9982 11.9918 32L12.0068 28ZM12.5092 28.1253C12.6641 28.2069 12.797 28.3248 12.8966 28.4688L9.60594 30.743C9.87288 31.1292 10.2292 31.4453 10.6447 31.6641L12.5092 28.1253ZM12.8521 28.407C10.0112 24.6135 7.17254 20.848 4.36686 17.0528L1.15038 19.4307C3.96586 23.2391 6.81959 27.0247 9.6504 30.8047L12.8521 28.407ZM4.36664 17.0525C0.254834 11.4927 3.42103 3.44724 10.2352 2.16621L9.49612 -1.76493C-0.204724 0.0587995 -4.72452 11.4869 1.1506 19.431L4.36664 17.0525ZM10.2382 2.16564C11.4787 1.93045 12.7537 1.94586 13.9882 2.21095L14.828 -1.69989C13.0718 -2.07702 11.2579 -2.09894 9.4931 -1.76435L10.2382 2.16564ZM13.9882 2.21095C15.2227 2.47604 16.3916 2.98546 17.4262 3.7092L19.7191 0.431581C18.2472 -0.598047 16.5842 -1.32276 14.828 -1.69989L13.9882 2.21095ZM17.4262 3.7092C18.4608 4.43295 19.3401 5.35639 20.0124 6.42515L23.3982 4.29539C22.4419 2.77493 21.1909 1.46121 19.7191 0.431581L17.4262 3.7092ZM20.0124 6.42515C20.6846 7.49391 21.1363 8.68638 21.3406 9.93234L25.2879 9.28485C24.9971 7.5123 24.3546 5.81585 23.3982 4.29539L20.0124 6.42515ZM21.3409 9.93397C21.3786 10.1624 21.4042 10.4103 21.4246 10.6613C21.4347 10.7864 21.4429 10.9034 21.4513 11.0217C21.4592 11.1314 21.4683 11.2579 21.4791 11.3697L25.4605 10.9841C25.4462 10.8365 25.4017 9.97524 25.2876 9.28322L21.3409 9.93397ZM12.0368 17.27C13.1841 17.2595 14.3026 16.9094 15.2511 16.2638L13.0003 12.9571C12.7052 13.1579 12.3573 13.2669 12.0003 13.2701L12.0368 17.27ZM15.2511 16.2638C16.1996 15.6181 16.9355 14.706 17.366 13.6425L13.6583 12.1416C13.5244 12.4724 13.2954 12.7562 13.0003 12.9571L15.2511 16.2638ZM17.366 13.6425C17.7966 12.5789 17.9023 11.4117 17.67 10.2881L13.7529 11.098C13.8252 11.4475 13.7922 11.8107 13.6583 12.1416L17.366 13.6425ZM17.67 10.2881C17.4377 9.16451 16.8778 8.13492 16.0608 7.32931L13.2522 10.1775C13.5064 10.4281 13.6806 10.7484 13.7529 11.098L17.67 10.2881ZM16.0608 7.32931C15.2438 6.5237 14.2065 5.97819 13.0797 5.76163L12.3248 9.68974C12.6753 9.75711 12.9981 9.92683 13.2522 10.1775L16.0608 7.32931ZM13.0797 5.76163C11.953 5.54508 10.7874 5.66719 9.72997 6.11256L11.2826 9.79892C11.6116 9.66036 11.9742 9.62237 12.3248 9.68974L13.0797 5.76163ZM9.72997 6.11256C8.67257 6.55792 7.77082 7.30658 7.13855 8.26401L10.4764 10.4683C10.6731 10.1704 10.9537 9.93748 11.2826 9.79892L9.72997 6.11256ZM7.13855 8.26401C6.50629 9.22144 6.17184 10.3447 6.17744 11.4921L10.1774 11.4726C10.1757 11.1156 10.2797 10.7661 10.4764 10.4683L7.13855 8.26401ZM6.17751 11.5014C6.1922 13.0409 6.81583 14.5119 7.91206 15.5929L10.7206 12.7448C10.3773 12.4062 10.1819 11.9454 10.1773 11.4632L6.17751 11.5014ZM7.91206 15.5929C9.00828 16.6739 10.4879 17.2769 12.0275 17.27L12.0096 13.2701C11.5274 13.2722 11.064 13.0833 10.7206 12.7448L7.91206 15.5929Z" fill="#885A42" mask="url(#path-1-inside-1_1_415)"/>
</svg>
