<svg width="30" height="30" viewBox="0 0 30 30" fill="none" xmlns="http://www.w3.org/2000/svg">
<path d="M26.875 5.3125C26.875 5.06386 26.7762 4.8254 26.6004 4.64959C26.4246 4.47377 26.1861 4.375 25.9375 4.375H25.24C24.0525 4.375 23.34 5.17375 22.9338 5.91625C22.6625 6.41125 22.4662 6.985 22.3125 7.505C22.2709 7.50172 22.2292 7.50005 22.1875 7.5H6.565C5.5275 7.5 4.7775 8.4925 5.0625 9.49125L7.3475 17.5025C7.55237 18.2211 7.98579 18.8533 8.58214 19.3035C9.1785 19.7537 9.9053 19.9973 10.6525 19.9975H18.0875C18.8406 19.9975 19.5729 19.7502 20.1718 19.2936C20.7708 18.837 21.2031 18.1963 21.4025 17.47L22.3525 14.005L23.9275 8.695L23.9288 8.685C24.1238 7.97625 24.3063 7.3125 24.5788 6.8175C24.84 6.33625 25.05 6.25 25.2387 6.25H25.9375C26.1861 6.25 26.4246 6.15123 26.6004 5.97541C26.7762 5.7996 26.875 5.56114 26.875 5.3125ZM20.5338 13.55L19.595 16.9738C19.4075 17.6513 18.7913 18.1225 18.0875 18.1225H10.6525C10.3129 18.1225 9.98248 18.0118 9.71138 17.8073C9.44027 17.6027 9.24319 17.3153 9.15 16.9888L6.97875 9.375H21.7688L20.5512 13.4838L20.5338 13.55Z" fill="#904476"/>
<path d="M16.25 23.75C16.25 24.413 16.5134 25.0489 16.9822 25.5178C17.4511 25.9866 18.087 26.25 18.75 26.25C19.413 26.25 20.0489 25.9866 20.5178 25.5178C20.9866 25.0489 21.25 24.413 21.25 23.75C21.25 23.087 20.9866 22.4511 20.5178 21.9822C20.0489 21.5134 19.413 21.25 18.75 21.25C18.087 21.25 17.4511 21.5134 16.9822 21.9822C16.5134 22.4511 16.25 23.087 16.25 23.75ZM18.125 23.75C18.125 23.5842 18.1908 23.4253 18.3081 23.3081C18.4253 23.1908 18.5842 23.125 18.75 23.125C18.9158 23.125 19.0747 23.1908 19.1919 23.3081C19.3092 23.4253 19.375 23.5842 19.375 23.75C19.375 23.9158 19.3092 24.0747 19.1919 24.1919C19.0747 24.3092 18.9158 24.375 18.75 24.375C18.5842 24.375 18.4253 24.3092 18.3081 24.1919C18.1908 24.0747 18.125 23.9158 18.125 23.75Z" fill="#904476"/>
<path d="M7.5 23.75C7.5 24.413 7.76339 25.0489 8.23223 25.5178C8.70107 25.9866 9.33696 26.25 10 26.25C10.663 26.25 11.2989 25.9866 11.7678 25.5178C12.2366 25.0489 12.5 24.413 12.5 23.75C12.5 23.087 12.2366 22.4511 11.7678 21.9822C11.2989 21.5134 10.663 21.25 10 21.25C9.33696 21.25 8.70107 21.5134 8.23223 21.9822C7.76339 22.4511 7.5 23.087 7.5 23.75ZM9.375 23.75C9.375 23.5842 9.44085 23.4253 9.55806 23.3081C9.67527 23.1908 9.83424 23.125 10 23.125C10.1658 23.125 10.3247 23.1908 10.4419 23.3081C10.5592 23.4253 10.625 23.5842 10.625 23.75C10.625 23.9158 10.5592 24.0747 10.4419 24.1919C10.3247 24.3092 10.1658 24.375 10 24.375C9.83424 24.375 9.67527 24.3092 9.55806 24.1919C9.44085 24.0747 9.375 23.9158 9.375 23.75Z" fill="#904476"/>
</svg>
