<svg width="48" height="48" viewBox="0 0 48 48" fill="none" xmlns="http://www.w3.org/2000/svg">
<g filter="url(#filter0_d_630_451)">
<circle cx="24" cy="24" r="20" fill="#FFFBF8"/>
</g>
<path d="M31.7066 17.0205C30.7039 16.0175 29.3745 15.4077 27.9602 15.302C26.5459 15.1963 25.1407 15.6016 24 16.4444C22.7983 15.5506 21.3026 15.1453 19.8141 15.3102C18.3256 15.475 16.9548 16.1977 15.9778 17.3327C15.0008 18.4678 14.4902 19.9308 14.5487 21.4273C14.6073 22.9238 15.2306 24.3425 16.2933 25.3977L23.3294 32.4338C23.4172 32.5224 23.5217 32.5926 23.6368 32.6406C23.7518 32.6885 23.8753 32.7132 24 32.7132C24.1246 32.7132 24.2481 32.6885 24.3632 32.6406C24.4783 32.5926 24.5827 32.5224 24.6705 32.4338L31.7066 25.3977C32.2569 24.8478 32.6934 24.1948 32.9913 23.4761C33.2891 22.7574 33.4424 21.9871 33.4424 21.2091C33.4424 20.4312 33.2891 19.6608 32.9913 18.9421C32.6934 18.2234 32.2569 17.5704 31.7066 17.0205ZM30.375 24.0661L24 30.4316L17.625 24.0661C17.0632 23.502 16.6805 22.7845 16.5249 22.0037C16.3693 21.2229 16.4477 20.4136 16.7504 19.6772C17.053 18.9409 17.5663 18.3102 18.226 17.8645C18.8856 17.4187 19.6622 17.1777 20.4583 17.1716C21.5218 17.1742 22.5409 17.5988 23.2916 18.3522C23.3794 18.4407 23.4839 18.511 23.599 18.5589C23.7141 18.6069 23.8375 18.6315 23.9622 18.6315C24.0869 18.6315 24.2103 18.6069 24.3254 18.5589C24.4405 18.511 24.5449 18.4407 24.6327 18.3522C25.4056 17.6825 26.404 17.3314 27.426 17.37C28.4479 17.4086 29.417 17.834 30.1371 18.5601C30.8573 19.2863 31.2746 20.2589 31.3048 21.2811C31.3349 22.3033 30.9755 23.2988 30.2994 24.0661H30.375Z" fill="#885A42"/>
<defs>
<filter id="filter0_d_630_451" x="0" y="0" width="48" height="48" filterUnits="userSpaceOnUse" color-interpolation-filters="sRGB">
<feFlood flood-opacity="0" result="BackgroundImageFix"/>
<feColorMatrix in="SourceAlpha" type="matrix" values="0 0 0 0 0 0 0 0 0 0 0 0 0 0 0 0 0 0 127 0" result="hardAlpha"/>
<feOffset/>
<feGaussianBlur stdDeviation="2"/>
<feColorMatrix type="matrix" values="0 0 0 0 0 0 0 0 0 0 0 0 0 0 0 0 0 0 0.05 0"/>
<feBlend mode="normal" in2="BackgroundImageFix" result="effect1_dropShadow_630_451"/>
<feBlend mode="normal" in="SourceGraphic" in2="effect1_dropShadow_630_451" result="shape"/>
</filter>
</defs>
</svg>
